# xmcd
#
# Track frame offsets:
#	150
#	12013
#	27631
#	42093
#	58564
#	74277
#	88834
#	103619
#	117602
#	132472
#	142098
#	155106
#	172574
#	187832
#
# Disc length: 2775 seconds
#
# Revision: 0
# Processed by: cddbd v1.5.2PL0 Copyright (c) Steve Scherf et al.
# Submitted via: audiograbber 1.83.01
#
DISCID=c00ad50e
DTITLE=Slim Dusty and Family - Slim Dusty Family Reunion
DYEAR=2008
DGENRE=Country
TTITLE0=Slim Dusty - How Good It Is
TTITLE1=Anne Kirkpatrick - Road Dreamin'
TTITLE2=James Ameman and Hannah Kirkpatrick - Resting Place
TTITLE3=David Kirkpatrick - Old Purple
TTITLE4=Anne Kirkpatrick - Took His Saddle Home
TTITLE5=David and Anne Kirkpatrick - Pick It Up and Pass It On
TTITLE6=Joy McKean - Too Many Memories
TTITLE7=Slim Dusty - Sunburnt People
TTITLE8=David Kirkpatrick - Keep On Rolling (The Song)
TTITLE9=Kate Ameman - High, Wide and Handsome
TTITLE10=Hannah Kirkpatrick - The Dreamer
TTITLE11=James Ameman - Middle of the Road
TTITLE12=Joy McKean and The Family - Family Reunion
TTITLE13=Anne Kirkpatrick - From There To Now
EXTD=
EXTT0=
EXTT1=
EXTT2=
EXTT3=
EXTT4=
EXTT5=
EXTT6=
EXTT7=
EXTT8=
EXTT9=
EXTT10=
EXTT11=
EXTT12=
EXTT13=
PLAYORDER=
